<svg width="132" height="115" viewBox="0 0 132 115" fill="none" xmlns="http://www.w3.org/2000/svg">
<g opacity="0.3">
<mask id="mask0_58_283" style="mask-type:alpha" maskUnits="userSpaceOnUse" x="0" y="0" width="11" height="11">
<path d="M5.22838 10.4257C8.11594 10.4257 10.4568 8.09194 10.4568 5.21318C10.4568 2.33442 8.11594 0.000732422 5.22838 0.000732422C2.34082 0.000732422 0 2.33442 0 5.21318C0 8.09194 2.34082 10.4257 5.22838 10.4257Z" fill="url(#paint0_linear_58_283)"/>
</mask>
<g mask="url(#mask0_58_283)">
<path d="M5.22838 10.4257C8.11594 10.4257 10.4568 8.09194 10.4568 5.21318C10.4568 2.33442 8.11594 0.000732422 5.22838 0.000732422C2.34082 0.000732422 0 2.33442 0 5.21318C0 8.09194 2.34082 10.4257 5.22838 10.4257Z" fill="url(#paint1_linear_58_283)"/>
</g>
<mask id="mask1_58_283" style="mask-type:alpha" maskUnits="userSpaceOnUse" x="30" y="0" width="11" height="11">
<path d="M35.5095 10.4257C38.397 10.4257 40.7378 8.09194 40.7378 5.21318C40.7378 2.33442 38.397 0.000732422 35.5095 0.000732422C32.6219 0.000732422 30.2811 2.33442 30.2811 5.21318C30.2811 8.09194 32.6219 10.4257 35.5095 10.4257Z" fill="url(#paint2_linear_58_283)"/>
</mask>
<g mask="url(#mask1_58_283)">
<path d="M35.5095 10.4257C38.397 10.4257 40.7378 8.09194 40.7378 5.21318C40.7378 2.33442 38.397 0.000732422 35.5095 0.000732422C32.6219 0.000732422 30.2811 2.33442 30.2811 5.21318C30.2811 8.09194 32.6219 10.4257 35.5095 10.4257Z" fill="url(#paint3_linear_58_283)"/>
</g>
<mask id="mask2_58_283" style="mask-type:alpha" maskUnits="userSpaceOnUse" x="60" y="0" width="12" height="11">
<path d="M65.7905 10.4257C68.6781 10.4257 71.0189 8.09194 71.0189 5.21318C71.0189 2.33442 68.6781 0.000732422 65.7905 0.000732422C62.9029 0.000732422 60.5621 2.33442 60.5621 5.21318C60.5621 8.09194 62.9029 10.4257 65.7905 10.4257Z" fill="url(#paint4_linear_58_283)"/>
</mask>
<g mask="url(#mask2_58_283)">
<path d="M65.7905 10.4257C68.6781 10.4257 71.0189 8.09194 71.0189 5.21318C71.0189 2.33442 68.6781 0.000732422 65.7905 0.000732422C62.9029 0.000732422 60.5621 2.33442 60.5621 5.21318C60.5621 8.09194 62.9029 10.4257 65.7905 10.4257Z" fill="url(#paint5_linear_58_283)"/>
</g>
<mask id="mask3_58_283" style="mask-type:alpha" maskUnits="userSpaceOnUse" x="90" y="0" width="12" height="11">
<path d="M96.0716 10.4257C98.9592 10.4257 101.3 8.09194 101.3 5.21318C101.3 2.33442 98.9592 0.000732422 96.0716 0.000732422C93.184 0.000732422 90.8432 2.33442 90.8432 5.21318C90.8432 8.09194 93.184 10.4257 96.0716 10.4257Z" fill="url(#paint6_linear_58_283)"/>
</mask>
<g mask="url(#mask3_58_283)">
<path d="M96.0716 10.4257C98.9592 10.4257 101.3 8.09194 101.3 5.21318C101.3 2.33442 98.9592 0.000732422 96.0716 0.000732422C93.184 0.000732422 90.8432 2.33442 90.8432 5.21318C90.8432 8.09194 93.184 10.4257 96.0716 10.4257Z" fill="url(#paint7_linear_58_283)"/>
</g>
<mask id="mask4_58_283" style="mask-type:alpha" maskUnits="userSpaceOnUse" x="121" y="0" width="11" height="11">
<path d="M126.353 10.4257C129.24 10.4257 131.581 8.09194 131.581 5.21318C131.581 2.33442 129.24 0.000732422 126.353 0.000732422C123.465 0.000732422 121.124 2.33442 121.124 5.21318C121.124 8.09194 123.465 10.4257 126.353 10.4257Z" fill="url(#paint8_linear_58_283)"/>
</mask>
<g mask="url(#mask4_58_283)">
<path d="M126.353 10.4257C129.24 10.4257 131.581 8.09194 131.581 5.21318C131.581 2.33442 129.24 0.000732422 126.353 0.000732422C123.465 0.000732422 121.124 2.33442 121.124 5.21318C121.124 8.09194 123.465 10.4257 126.353 10.4257Z" fill="url(#paint9_linear_58_283)"/>
</g>
<mask id="mask5_58_283" style="mask-type:alpha" maskUnits="userSpaceOnUse" x="0" y="26" width="11" height="11">
<path d="M5.22838 36.5965C8.11594 36.5965 10.4568 34.2628 10.4568 31.3841C10.4568 28.5053 8.11594 26.1716 5.22838 26.1716C2.34082 26.1716 0 28.5053 0 31.3841C0 34.2628 2.34082 36.5965 5.22838 36.5965Z" fill="url(#paint10_linear_58_283)"/>
</mask>
<g mask="url(#mask5_58_283)">
<path d="M5.22838 36.5965C8.11594 36.5965 10.4568 34.2628 10.4568 31.3841C10.4568 28.5053 8.11594 26.1716 5.22838 26.1716C2.34082 26.1716 0 28.5053 0 31.3841C0 34.2628 2.34082 36.5965 5.22838 36.5965Z" fill="url(#paint11_linear_58_283)"/>
</g>
<mask id="mask6_58_283" style="mask-type:alpha" maskUnits="userSpaceOnUse" x="30" y="26" width="11" height="11">
<path d="M35.5095 36.5965C38.397 36.5965 40.7378 34.2628 40.7378 31.3841C40.7378 28.5053 38.397 26.1716 35.5095 26.1716C32.6219 26.1716 30.2811 28.5053 30.2811 31.3841C30.2811 34.2628 32.6219 36.5965 35.5095 36.5965Z" fill="url(#paint12_linear_58_283)"/>
</mask>
<g mask="url(#mask6_58_283)">
<path d="M35.5095 36.5965C38.397 36.5965 40.7378 34.2628 40.7378 31.3841C40.7378 28.5053 38.397 26.1716 35.5095 26.1716C32.6219 26.1716 30.2811 28.5053 30.2811 31.3841C30.2811 34.2628 32.6219 36.5965 35.5095 36.5965Z" fill="url(#paint13_linear_58_283)"/>
</g>
<mask id="mask7_58_283" style="mask-type:alpha" maskUnits="userSpaceOnUse" x="60" y="26" width="12" height="11">
<path d="M65.7905 36.5965C68.6781 36.5965 71.0189 34.2628 71.0189 31.3841C71.0189 28.5053 68.6781 26.1716 65.7905 26.1716C62.9029 26.1716 60.5621 28.5053 60.5621 31.3841C60.5621 34.2628 62.9029 36.5965 65.7905 36.5965Z" fill="url(#paint14_linear_58_283)"/>
</mask>
<g mask="url(#mask7_58_283)">
<path d="M65.7905 36.5965C68.6781 36.5965 71.0189 34.2628 71.0189 31.3841C71.0189 28.5053 68.6781 26.1716 65.7905 26.1716C62.9029 26.1716 60.5621 28.5053 60.5621 31.3841C60.5621 34.2628 62.9029 36.5965 65.7905 36.5965Z" fill="url(#paint15_linear_58_283)"/>
</g>
<mask id="mask8_58_283" style="mask-type:alpha" maskUnits="userSpaceOnUse" x="90" y="26" width="12" height="11">
<path d="M96.0716 36.5965C98.9592 36.5965 101.3 34.2628 101.3 31.3841C101.3 28.5053 98.9592 26.1716 96.0716 26.1716C93.184 26.1716 90.8432 28.5053 90.8432 31.3841C90.8432 34.2628 93.184 36.5965 96.0716 36.5965Z" fill="url(#paint16_linear_58_283)"/>
</mask>
<g mask="url(#mask8_58_283)">
<path d="M96.0716 36.5965C98.9592 36.5965 101.3 34.2628 101.3 31.3841C101.3 28.5053 98.9592 26.1716 96.0716 26.1716C93.184 26.1716 90.8432 28.5053 90.8432 31.3841C90.8432 34.2628 93.184 36.5965 96.0716 36.5965Z" fill="url(#paint17_linear_58_283)"/>
</g>
<mask id="mask9_58_283" style="mask-type:alpha" maskUnits="userSpaceOnUse" x="121" y="26" width="11" height="11">
<path d="M126.353 36.5965C129.24 36.5965 131.581 34.2628 131.581 31.3841C131.581 28.5053 129.24 26.1716 126.353 26.1716C123.465 26.1716 121.124 28.5053 121.124 31.3841C121.124 34.2628 123.465 36.5965 126.353 36.5965Z" fill="url(#paint18_linear_58_283)"/>
</mask>
<g mask="url(#mask9_58_283)">
<path d="M126.353 36.5965C129.24 36.5965 131.581 34.2628 131.581 31.3841C131.581 28.5053 129.24 26.1716 126.353 26.1716C123.465 26.1716 121.124 28.5053 121.124 31.3841C121.124 34.2628 123.465 36.5965 126.353 36.5965Z" fill="url(#paint19_linear_58_283)"/>
</g>
<mask id="mask10_58_283" style="mask-type:alpha" maskUnits="userSpaceOnUse" x="0" y="52" width="11" height="11">
<path d="M5.22838 62.7133C8.11594 62.7133 10.4568 60.3796 10.4568 57.5008C10.4568 54.622 8.11594 52.2883 5.22838 52.2883C2.34082 52.2883 0 54.622 0 57.5008C0 60.3796 2.34082 62.7133 5.22838 62.7133Z" fill="url(#paint20_linear_58_283)"/>
</mask>
<g mask="url(#mask10_58_283)">
<path d="M5.22838 62.7133C8.11594 62.7133 10.4568 60.3796 10.4568 57.5008C10.4568 54.622 8.11594 52.2883 5.22838 52.2883C2.34082 52.2883 0 54.622 0 57.5008C0 60.3796 2.34082 62.7133 5.22838 62.7133Z" fill="url(#paint21_linear_58_283)"/>
</g>
<mask id="mask11_58_283" style="mask-type:alpha" maskUnits="userSpaceOnUse" x="30" y="52" width="11" height="11">
<path d="M35.5095 62.7133C38.397 62.7133 40.7378 60.3796 40.7378 57.5008C40.7378 54.622 38.397 52.2883 35.5095 52.2883C32.6219 52.2883 30.2811 54.622 30.2811 57.5008C30.2811 60.3796 32.6219 62.7133 35.5095 62.7133Z" fill="url(#paint22_linear_58_283)"/>
</mask>
<g mask="url(#mask11_58_283)">
<path d="M35.5095 62.7133C38.397 62.7133 40.7378 60.3796 40.7378 57.5008C40.7378 54.622 38.397 52.2883 35.5095 52.2883C32.6219 52.2883 30.2811 54.622 30.2811 57.5008C30.2811 60.3796 32.6219 62.7133 35.5095 62.7133Z" fill="url(#paint23_linear_58_283)"/>
</g>
<mask id="mask12_58_283" style="mask-type:alpha" maskUnits="userSpaceOnUse" x="60" y="52" width="12" height="11">
<path d="M65.7905 62.7133C68.6781 62.7133 71.0189 60.3796 71.0189 57.5008C71.0189 54.622 68.6781 52.2883 65.7905 52.2883C62.9029 52.2883 60.5621 54.622 60.5621 57.5008C60.5621 60.3796 62.9029 62.7133 65.7905 62.7133Z" fill="url(#paint24_linear_58_283)"/>
</mask>
<g mask="url(#mask12_58_283)">
<path d="M65.7905 62.7133C68.6781 62.7133 71.0189 60.3796 71.0189 57.5008C71.0189 54.622 68.6781 52.2883 65.7905 52.2883C62.9029 52.2883 60.5621 54.622 60.5621 57.5008C60.5621 60.3796 62.9029 62.7133 65.7905 62.7133Z" fill="url(#paint25_linear_58_283)"/>
</g>
<mask id="mask13_58_283" style="mask-type:alpha" maskUnits="userSpaceOnUse" x="90" y="52" width="12" height="11">
<path d="M96.0716 62.7133C98.9592 62.7133 101.3 60.3796 101.3 57.5008C101.3 54.622 98.9592 52.2883 96.0716 52.2883C93.184 52.2883 90.8432 54.622 90.8432 57.5008C90.8432 60.3796 93.184 62.7133 96.0716 62.7133Z" fill="url(#paint26_linear_58_283)"/>
</mask>
<g mask="url(#mask13_58_283)">
<path d="M96.0716 62.7133C98.9592 62.7133 101.3 60.3796 101.3 57.5008C101.3 54.622 98.9592 52.2883 96.0716 52.2883C93.184 52.2883 90.8432 54.622 90.8432 57.5008C90.8432 60.3796 93.184 62.7133 96.0716 62.7133Z" fill="url(#paint27_linear_58_283)"/>
</g>
<mask id="mask14_58_283" style="mask-type:alpha" maskUnits="userSpaceOnUse" x="121" y="52" width="11" height="11">
<path d="M126.353 62.7133C129.24 62.7133 131.581 60.3796 131.581 57.5008C131.581 54.622 129.24 52.2883 126.353 52.2883C123.465 52.2883 121.124 54.622 121.124 57.5008C121.124 60.3796 123.465 62.7133 126.353 62.7133Z" fill="url(#paint28_linear_58_283)"/>
</mask>
<g mask="url(#mask14_58_283)">
<path d="M126.353 62.7133C129.24 62.7133 131.581 60.3796 131.581 57.5008C131.581 54.622 129.24 52.2883 126.353 52.2883C123.465 52.2883 121.124 54.622 121.124 57.5008C121.124 60.3796 123.465 62.7133 126.353 62.7133Z" fill="url(#paint29_linear_58_283)"/>
</g>
<mask id="mask15_58_283" style="mask-type:alpha" maskUnits="userSpaceOnUse" x="0" y="78" width="11" height="11">
<path d="M5.22838 88.8839C8.11594 88.8839 10.4568 86.5502 10.4568 83.6714C10.4568 80.7927 8.11594 78.459 5.22838 78.459C2.34082 78.459 0 80.7927 0 83.6714C0 86.5502 2.34082 88.8839 5.22838 88.8839Z" fill="url(#paint30_linear_58_283)"/>
</mask>
<g mask="url(#mask15_58_283)">
<path d="M5.22838 88.8839C8.11594 88.8839 10.4568 86.5502 10.4568 83.6714C10.4568 80.7927 8.11594 78.459 5.22838 78.459C2.34082 78.459 0 80.7927 0 83.6714C0 86.5502 2.34082 88.8839 5.22838 88.8839Z" fill="url(#paint31_linear_58_283)"/>
</g>
<mask id="mask16_58_283" style="mask-type:alpha" maskUnits="userSpaceOnUse" x="30" y="78" width="11" height="11">
<path d="M35.5095 88.8839C38.397 88.8839 40.7378 86.5502 40.7378 83.6714C40.7378 80.7927 38.397 78.459 35.5095 78.459C32.6219 78.459 30.2811 80.7927 30.2811 83.6714C30.2811 86.5502 32.6219 88.8839 35.5095 88.8839Z" fill="url(#paint32_linear_58_283)"/>
</mask>
<g mask="url(#mask16_58_283)">
<path d="M35.5095 88.8839C38.397 88.8839 40.7378 86.5502 40.7378 83.6714C40.7378 80.7927 38.397 78.459 35.5095 78.459C32.6219 78.459 30.2811 80.7927 30.2811 83.6714C30.2811 86.5502 32.6219 88.8839 35.5095 88.8839Z" fill="url(#paint33_linear_58_283)"/>
</g>
<mask id="mask17_58_283" style="mask-type:alpha" maskUnits="userSpaceOnUse" x="60" y="78" width="12" height="11">
<path d="M65.7905 88.8839C68.6781 88.8839 71.0189 86.5502 71.0189 83.6714C71.0189 80.7927 68.6781 78.459 65.7905 78.459C62.9029 78.459 60.5621 80.7927 60.5621 83.6714C60.5621 86.5502 62.9029 88.8839 65.7905 88.8839Z" fill="url(#paint34_linear_58_283)"/>
</mask>
<g mask="url(#mask17_58_283)">
<path d="M65.7905 88.8839C68.6781 88.8839 71.0189 86.5502 71.0189 83.6714C71.0189 80.7927 68.6781 78.459 65.7905 78.459C62.9029 78.459 60.5621 80.7927 60.5621 83.6714C60.5621 86.5502 62.9029 88.8839 65.7905 88.8839Z" fill="url(#paint35_linear_58_283)"/>
</g>
<mask id="mask18_58_283" style="mask-type:alpha" maskUnits="userSpaceOnUse" x="90" y="78" width="12" height="11">
<path d="M96.0716 88.8839C98.9592 88.8839 101.3 86.5502 101.3 83.6714C101.3 80.7927 98.9592 78.459 96.0716 78.459C93.184 78.459 90.8432 80.7927 90.8432 83.6714C90.8432 86.5502 93.184 88.8839 96.0716 88.8839Z" fill="url(#paint36_linear_58_283)"/>
</mask>
<g mask="url(#mask18_58_283)">
<path d="M96.0716 88.8839C98.9592 88.8839 101.3 86.5502 101.3 83.6714C101.3 80.7927 98.9592 78.459 96.0716 78.459C93.184 78.459 90.8432 80.7927 90.8432 83.6714C90.8432 86.5502 93.184 88.8839 96.0716 88.8839Z" fill="url(#paint37_linear_58_283)"/>
</g>
<mask id="mask19_58_283" style="mask-type:alpha" maskUnits="userSpaceOnUse" x="121" y="78" width="11" height="11">
<path d="M126.353 88.8839C129.24 88.8839 131.581 86.5502 131.581 83.6714C131.581 80.7927 129.24 78.459 126.353 78.459C123.465 78.459 121.124 80.7927 121.124 83.6714C121.124 86.5502 123.465 88.8839 126.353 88.8839Z" fill="url(#paint38_linear_58_283)"/>
</mask>
<g mask="url(#mask19_58_283)">
<path d="M126.353 88.8839C129.24 88.8839 131.581 86.5502 131.581 83.6714C131.581 80.7927 129.24 78.459 126.353 78.459C123.465 78.459 121.124 80.7927 121.124 83.6714C121.124 86.5502 123.465 88.8839 126.353 88.8839Z" fill="url(#paint39_linear_58_283)"/>
</g>
<mask id="mask20_58_283" style="mask-type:alpha" maskUnits="userSpaceOnUse" x="0" y="104" width="11" height="12">
<path d="M5.22838 115.001C8.11594 115.001 10.4568 112.667 10.4568 109.788C10.4568 106.909 8.11594 104.576 5.22838 104.576C2.34082 104.576 0 106.909 0 109.788C0 112.667 2.34082 115.001 5.22838 115.001Z" fill="url(#paint40_linear_58_283)"/>
</mask>
<g mask="url(#mask20_58_283)">
<path d="M5.22838 115.001C8.11594 115.001 10.4568 112.667 10.4568 109.788C10.4568 106.909 8.11594 104.576 5.22838 104.576C2.34082 104.576 0 106.909 0 109.788C0 112.667 2.34082 115.001 5.22838 115.001Z" fill="url(#paint41_linear_58_283)"/>
</g>
<mask id="mask21_58_283" style="mask-type:alpha" maskUnits="userSpaceOnUse" x="30" y="104" width="11" height="12">
<path d="M35.5095 115.001C38.397 115.001 40.7378 112.667 40.7378 109.788C40.7378 106.909 38.397 104.576 35.5095 104.576C32.6219 104.576 30.2811 106.909 30.2811 109.788C30.2811 112.667 32.6219 115.001 35.5095 115.001Z" fill="url(#paint42_linear_58_283)"/>
</mask>
<g mask="url(#mask21_58_283)">
<path d="M35.5095 115.001C38.397 115.001 40.7378 112.667 40.7378 109.788C40.7378 106.909 38.397 104.576 35.5095 104.576C32.6219 104.576 30.2811 106.909 30.2811 109.788C30.2811 112.667 32.6219 115.001 35.5095 115.001Z" fill="url(#paint43_linear_58_283)"/>
</g>
<mask id="mask22_58_283" style="mask-type:alpha" maskUnits="userSpaceOnUse" x="60" y="104" width="12" height="12">
<path d="M65.7905 115.001C68.6781 115.001 71.0189 112.667 71.0189 109.788C71.0189 106.909 68.6781 104.576 65.7905 104.576C62.9029 104.576 60.5621 106.909 60.5621 109.788C60.5621 112.667 62.9029 115.001 65.7905 115.001Z" fill="url(#paint44_linear_58_283)"/>
</mask>
<g mask="url(#mask22_58_283)">
<path d="M65.7905 115.001C68.6781 115.001 71.0189 112.667 71.0189 109.788C71.0189 106.909 68.6781 104.576 65.7905 104.576C62.9029 104.576 60.5621 106.909 60.5621 109.788C60.5621 112.667 62.9029 115.001 65.7905 115.001Z" fill="url(#paint45_linear_58_283)"/>
</g>
<mask id="mask23_58_283" style="mask-type:alpha" maskUnits="userSpaceOnUse" x="90" y="104" width="12" height="12">
<path d="M96.0716 115.001C98.9592 115.001 101.3 112.667 101.3 109.788C101.3 106.909 98.9592 104.576 96.0716 104.576C93.184 104.576 90.8432 106.909 90.8432 109.788C90.8432 112.667 93.184 115.001 96.0716 115.001Z" fill="url(#paint46_linear_58_283)"/>
</mask>
<g mask="url(#mask23_58_283)">
<path d="M96.0716 115.001C98.9592 115.001 101.3 112.667 101.3 109.788C101.3 106.909 98.9592 104.576 96.0716 104.576C93.184 104.576 90.8432 106.909 90.8432 109.788C90.8432 112.667 93.184 115.001 96.0716 115.001Z" fill="url(#paint47_linear_58_283)"/>
</g>
<mask id="mask24_58_283" style="mask-type:alpha" maskUnits="userSpaceOnUse" x="121" y="104" width="11" height="12">
<path d="M126.353 115.001C129.24 115.001 131.581 112.667 131.581 109.788C131.581 106.909 129.24 104.576 126.353 104.576C123.465 104.576 121.124 106.909 121.124 109.788C121.124 112.667 123.465 115.001 126.353 115.001Z" fill="url(#paint48_linear_58_283)"/>
</mask>
<g mask="url(#mask24_58_283)">
<path d="M126.353 115.001C129.24 115.001 131.581 112.667 131.581 109.788C131.581 106.909 129.24 104.576 126.353 104.576C123.465 104.576 121.124 106.909 121.124 109.788C121.124 112.667 123.465 115.001 126.353 115.001Z" fill="url(#paint49_linear_58_283)"/>
</g>
</g>
<defs>
<linearGradient id="paint0_linear_58_283" x1="54.996" y1="131.135" x2="-16.4057" y2="-50.6693" gradientUnits="userSpaceOnUse">
<stop/>
<stop offset="1" stop-color="white"/>
</linearGradient>
<linearGradient id="paint1_linear_58_283" x1="54.996" y1="131.135" x2="-16.4057" y2="-50.6693" gradientUnits="userSpaceOnUse">
<stop stop-color="#97C3F9"/>
<stop offset="1" stop-color="#93C1F9"/>
</linearGradient>
<linearGradient id="paint2_linear_58_283" x1="81.2005" y1="120.843" x2="9.79889" y2="-60.9605" gradientUnits="userSpaceOnUse">
<stop/>
<stop offset="1" stop-color="white"/>
</linearGradient>
<linearGradient id="paint3_linear_58_283" x1="81.2005" y1="120.843" x2="9.79889" y2="-60.9605" gradientUnits="userSpaceOnUse">
<stop stop-color="#97C3F9"/>
<stop offset="1" stop-color="#93C1F9"/>
</linearGradient>
<linearGradient id="paint4_linear_58_283" x1="107.405" y1="110.552" x2="36.0033" y2="-71.2518" gradientUnits="userSpaceOnUse">
<stop/>
<stop offset="1" stop-color="white"/>
</linearGradient>
<linearGradient id="paint5_linear_58_283" x1="107.405" y1="110.552" x2="36.0033" y2="-71.2518" gradientUnits="userSpaceOnUse">
<stop stop-color="#97C3F9"/>
<stop offset="1" stop-color="#93C1F9"/>
</linearGradient>
<linearGradient id="paint6_linear_58_283" x1="133.609" y1="100.26" x2="62.2075" y2="-81.5437" gradientUnits="userSpaceOnUse">
<stop/>
<stop offset="1" stop-color="white"/>
</linearGradient>
<linearGradient id="paint7_linear_58_283" x1="133.609" y1="100.26" x2="62.2075" y2="-81.5437" gradientUnits="userSpaceOnUse">
<stop stop-color="#97C3F9"/>
<stop offset="1" stop-color="#93C1F9"/>
</linearGradient>
<linearGradient id="paint8_linear_58_283" x1="159.813" y1="89.9687" x2="88.4119" y2="-91.8352" gradientUnits="userSpaceOnUse">
<stop/>
<stop offset="1" stop-color="white"/>
</linearGradient>
<linearGradient id="paint9_linear_58_283" x1="159.813" y1="89.9687" x2="88.4119" y2="-91.8352" gradientUnits="userSpaceOnUse">
<stop stop-color="#97C3F9"/>
<stop offset="1" stop-color="#93C1F9"/>
</linearGradient>
<linearGradient id="paint10_linear_58_283" x1="46.0538" y1="134.646" x2="-25.3466" y2="-47.1564" gradientUnits="userSpaceOnUse">
<stop/>
<stop offset="1" stop-color="white"/>
</linearGradient>
<linearGradient id="paint11_linear_58_283" x1="46.0538" y1="134.646" x2="-25.3466" y2="-47.1564" gradientUnits="userSpaceOnUse">
<stop stop-color="#97C3F9"/>
<stop offset="1" stop-color="#93C1F9"/>
</linearGradient>
<linearGradient id="paint12_linear_58_283" x1="72.2581" y1="124.354" x2="0.857718" y2="-57.4483" gradientUnits="userSpaceOnUse">
<stop/>
<stop offset="1" stop-color="white"/>
</linearGradient>
<linearGradient id="paint13_linear_58_283" x1="72.2581" y1="124.354" x2="0.857718" y2="-57.4483" gradientUnits="userSpaceOnUse">
<stop stop-color="#97C3F9"/>
<stop offset="1" stop-color="#93C1F9"/>
</linearGradient>
<linearGradient id="paint14_linear_58_283" x1="98.4624" y1="114.063" x2="27.062" y2="-67.7397" gradientUnits="userSpaceOnUse">
<stop/>
<stop offset="1" stop-color="white"/>
</linearGradient>
<linearGradient id="paint15_linear_58_283" x1="98.4624" y1="114.063" x2="27.062" y2="-67.7397" gradientUnits="userSpaceOnUse">
<stop stop-color="#97C3F9"/>
<stop offset="1" stop-color="#93C1F9"/>
</linearGradient>
<linearGradient id="paint16_linear_58_283" x1="124.667" y1="103.771" x2="53.2663" y2="-78.0311" gradientUnits="userSpaceOnUse">
<stop/>
<stop offset="1" stop-color="white"/>
</linearGradient>
<linearGradient id="paint17_linear_58_283" x1="124.667" y1="103.771" x2="53.2663" y2="-78.0311" gradientUnits="userSpaceOnUse">
<stop stop-color="#97C3F9"/>
<stop offset="1" stop-color="#93C1F9"/>
</linearGradient>
<linearGradient id="paint18_linear_58_283" x1="150.871" y1="93.48" x2="79.4707" y2="-88.3225" gradientUnits="userSpaceOnUse">
<stop/>
<stop offset="1" stop-color="white"/>
</linearGradient>
<linearGradient id="paint19_linear_58_283" x1="150.871" y1="93.48" x2="79.4707" y2="-88.3225" gradientUnits="userSpaceOnUse">
<stop stop-color="#97C3F9"/>
<stop offset="1" stop-color="#93C1F9"/>
</linearGradient>
<linearGradient id="paint20_linear_58_283" x1="37.1113" y1="138.159" x2="-34.2903" y2="-43.645" gradientUnits="userSpaceOnUse">
<stop/>
<stop offset="1" stop-color="white"/>
</linearGradient>
<linearGradient id="paint21_linear_58_283" x1="37.1113" y1="138.159" x2="-34.2903" y2="-43.645" gradientUnits="userSpaceOnUse">
<stop stop-color="#97C3F9"/>
<stop offset="1" stop-color="#93C1F9"/>
</linearGradient>
<linearGradient id="paint22_linear_58_283" x1="63.3157" y1="127.867" x2="-8.0859" y2="-53.9366" gradientUnits="userSpaceOnUse">
<stop/>
<stop offset="1" stop-color="white"/>
</linearGradient>
<linearGradient id="paint23_linear_58_283" x1="63.3157" y1="127.867" x2="-8.0859" y2="-53.9366" gradientUnits="userSpaceOnUse">
<stop stop-color="#97C3F9"/>
<stop offset="1" stop-color="#93C1F9"/>
</linearGradient>
<linearGradient id="paint24_linear_58_283" x1="89.52" y1="117.576" x2="18.1185" y2="-64.228" gradientUnits="userSpaceOnUse">
<stop/>
<stop offset="1" stop-color="white"/>
</linearGradient>
<linearGradient id="paint25_linear_58_283" x1="89.52" y1="117.576" x2="18.1185" y2="-64.228" gradientUnits="userSpaceOnUse">
<stop stop-color="#97C3F9"/>
<stop offset="1" stop-color="#93C1F9"/>
</linearGradient>
<linearGradient id="paint26_linear_58_283" x1="115.724" y1="107.284" x2="44.3227" y2="-74.5196" gradientUnits="userSpaceOnUse">
<stop/>
<stop offset="1" stop-color="white"/>
</linearGradient>
<linearGradient id="paint27_linear_58_283" x1="115.724" y1="107.284" x2="44.3227" y2="-74.5196" gradientUnits="userSpaceOnUse">
<stop stop-color="#97C3F9"/>
<stop offset="1" stop-color="#93C1F9"/>
</linearGradient>
<linearGradient id="paint28_linear_58_283" x1="141.929" y1="96.9927" x2="70.5271" y2="-84.8111" gradientUnits="userSpaceOnUse">
<stop/>
<stop offset="1" stop-color="white"/>
</linearGradient>
<linearGradient id="paint29_linear_58_283" x1="141.929" y1="96.9927" x2="70.5271" y2="-84.8111" gradientUnits="userSpaceOnUse">
<stop stop-color="#97C3F9"/>
<stop offset="1" stop-color="#93C1F9"/>
</linearGradient>
<linearGradient id="paint30_linear_58_283" x1="28.169" y1="141.671" x2="-43.2327" y2="-40.1333" gradientUnits="userSpaceOnUse">
<stop/>
<stop offset="1" stop-color="white"/>
</linearGradient>
<linearGradient id="paint31_linear_58_283" x1="28.169" y1="141.671" x2="-43.2327" y2="-40.1333" gradientUnits="userSpaceOnUse">
<stop stop-color="#97C3F9"/>
<stop offset="1" stop-color="#93C1F9"/>
</linearGradient>
<linearGradient id="paint32_linear_58_283" x1="54.3734" y1="131.379" x2="-17.0283" y2="-50.4248" gradientUnits="userSpaceOnUse">
<stop/>
<stop offset="1" stop-color="white"/>
</linearGradient>
<linearGradient id="paint33_linear_58_283" x1="54.3734" y1="131.379" x2="-17.0283" y2="-50.4248" gradientUnits="userSpaceOnUse">
<stop stop-color="#97C3F9"/>
<stop offset="1" stop-color="#93C1F9"/>
</linearGradient>
<linearGradient id="paint34_linear_58_283" x1="80.5776" y1="121.087" x2="9.17606" y2="-60.7162" gradientUnits="userSpaceOnUse">
<stop/>
<stop offset="1" stop-color="white"/>
</linearGradient>
<linearGradient id="paint35_linear_58_283" x1="80.5776" y1="121.087" x2="9.17606" y2="-60.7162" gradientUnits="userSpaceOnUse">
<stop stop-color="#97C3F9"/>
<stop offset="1" stop-color="#93C1F9"/>
</linearGradient>
<linearGradient id="paint36_linear_58_283" x1="106.782" y1="110.796" x2="35.3804" y2="-71.0078" gradientUnits="userSpaceOnUse">
<stop/>
<stop offset="1" stop-color="white"/>
</linearGradient>
<linearGradient id="paint37_linear_58_283" x1="106.782" y1="110.796" x2="35.3804" y2="-71.0078" gradientUnits="userSpaceOnUse">
<stop stop-color="#97C3F9"/>
<stop offset="1" stop-color="#93C1F9"/>
</linearGradient>
<linearGradient id="paint38_linear_58_283" x1="132.986" y1="100.504" x2="61.5847" y2="-81.2994" gradientUnits="userSpaceOnUse">
<stop/>
<stop offset="1" stop-color="white"/>
</linearGradient>
<linearGradient id="paint39_linear_58_283" x1="132.986" y1="100.504" x2="61.5847" y2="-81.2994" gradientUnits="userSpaceOnUse">
<stop stop-color="#97C3F9"/>
<stop offset="1" stop-color="#93C1F9"/>
</linearGradient>
<linearGradient id="paint40_linear_58_283" x1="19.2266" y1="145.182" x2="-52.1751" y2="-36.6212" gradientUnits="userSpaceOnUse">
<stop/>
<stop offset="1" stop-color="white"/>
</linearGradient>
<linearGradient id="paint41_linear_58_283" x1="19.2266" y1="145.182" x2="-52.1751" y2="-36.6212" gradientUnits="userSpaceOnUse">
<stop stop-color="#97C3F9"/>
<stop offset="1" stop-color="#93C1F9"/>
</linearGradient>
<linearGradient id="paint42_linear_58_283" x1="45.431" y1="134.891" x2="-25.9706" y2="-46.9127" gradientUnits="userSpaceOnUse">
<stop/>
<stop offset="1" stop-color="white"/>
</linearGradient>
<linearGradient id="paint43_linear_58_283" x1="45.431" y1="134.891" x2="-25.9706" y2="-46.9127" gradientUnits="userSpaceOnUse">
<stop stop-color="#97C3F9"/>
<stop offset="1" stop-color="#93C1F9"/>
</linearGradient>
<linearGradient id="paint44_linear_58_283" x1="71.6353" y1="124.6" x2="0.233718" y2="-57.2041" gradientUnits="userSpaceOnUse">
<stop/>
<stop offset="1" stop-color="white"/>
</linearGradient>
<linearGradient id="paint45_linear_58_283" x1="71.6353" y1="124.6" x2="0.233718" y2="-57.2041" gradientUnits="userSpaceOnUse">
<stop stop-color="#97C3F9"/>
<stop offset="1" stop-color="#93C1F9"/>
</linearGradient>
<linearGradient id="paint46_linear_58_283" x1="97.8397" y1="114.308" x2="26.438" y2="-67.4957" gradientUnits="userSpaceOnUse">
<stop/>
<stop offset="1" stop-color="white"/>
</linearGradient>
<linearGradient id="paint47_linear_58_283" x1="97.8397" y1="114.308" x2="26.438" y2="-67.4957" gradientUnits="userSpaceOnUse">
<stop stop-color="#97C3F9"/>
<stop offset="1" stop-color="#93C1F9"/>
</linearGradient>
<linearGradient id="paint48_linear_58_283" x1="124.044" y1="104.017" x2="52.6424" y2="-77.7872" gradientUnits="userSpaceOnUse">
<stop/>
<stop offset="1" stop-color="white"/>
</linearGradient>
<linearGradient id="paint49_linear_58_283" x1="124.044" y1="104.017" x2="52.6424" y2="-77.7872" gradientUnits="userSpaceOnUse">
<stop stop-color="#97C3F9"/>
<stop offset="1" stop-color="#93C1F9"/>
</linearGradient>
</defs>
</svg>
