<svg width="15" height="9" viewBox="0 0 15 9" fill="none" xmlns="http://www.w3.org/2000/svg">
<path d="M0.803597 5.30455L11.4107 5.30455L9.08038 7.6349C8.75895 7.95633 8.75895 8.43848 9.08038 8.7599C9.40181 9.08133 9.88395 9.08133 10.2054 8.7599L13.9018 5.06348C14.2232 4.74205 14.2232 4.2599 13.9018 3.93848L10.2054 0.242048C9.88396 -0.0793814 9.40181 -0.0793814 9.08038 0.242048C8.75896 0.563476 8.75896 1.04562 9.08038 1.36705L11.4107 3.6974L0.803597 3.6974C0.401811 3.6974 2.52311e-05 4.01883 2.51889e-05 4.50098C2.51468e-05 4.98312 0.401811 5.30455 0.803597 5.30455Z" fill="#4089ED"/>
</svg>
